<svg viewBox="0 0 24 24" fill="none" xmlns="http://www.w3.org/2000/svg">
<path d="M6.763 10.036c0 .296.032.535.088.71.064.176.144.368.256.576.048.08.064.16.064.224 0 .096-.064.192-.176.288l-.592.384c-.08.056-.16.08-.224.08-.096 0-.192-.048-.288-.128a3.66 3.66 0 01-.352-.448 8.69 8.69 0 01-.304-.576c-.768.904-1.728 1.352-2.896 1.352-0.832 0-1.496-.24-1.984-.704-.488-.464-.736-1.088-.736-1.856 0-.816.288-1.48.88-1.984.592-.504 1.392-.752 2.416-.752.336 0 .688.024 1.056.08.368.056.752.144 1.152.256v-.848c0-.88-.184-1.496-.544-1.84-.368-.344-.992-.512-1.888-.512-.4 0-.816.048-1.232.144-.416.096-.816.224-1.2.4-.176.08-.304.128-.384.144-.08.016-.144.024-.176.024-.144 0-.216-.104-.216-.32v-.504c0-.168.024-.296.064-.368.04-.072.12-.144.216-.2.4-.208.88-.384 1.44-.528.56-.144 1.168-.216 1.808-.216 1.376 0 2.384.312 3.016.936.624.624.944 1.568.944 2.832v3.744zm-4.016 1.504c.32 0 .656-.056 1.016-.176.36-.12.68-.336.952-.624.168-.176.296-.368.368-.576.072-.208.112-.448.112-.704v-.336a7.73 7.73 0 00-.92-.208 7.62 7.62 0 00-.944-.064c-.672 0-1.168.128-1.496.392-.328.264-.488.632-.488 1.128 0 .464.120.808.368 1.040.24.24.624.368 1.032.368zm7.424 1.92c-.184 0-.304-.032-.384-.104-.08-.064-.144-.2-.2-.384l-2.224-7.32c-.056-.192-.088-.32-.088-.384 0-.152.076-.24.224-.24h.912c.192 0 .32.032.384.104.08.064.128.2.176.384l1.584 6.24 1.472-6.24c.04-.192.096-.32.176-.384.08-.072.2-.104.384-.104h.744c.192 0 .32.032.384.104.08.064.144.2.176.384l1.488 6.32 1.632-6.32c.048-.192.104-.32.176-.384.08-.072.2-.104.384-.104h.864c.152 0 .232.076.232.24 0 .048-.008.096-.024.152-.016.056-.048.136-.096.232l-2.288 7.32c-.056.192-.12.32-.2.384-.08.072-.208.104-.384.104h-.8c-.192 0-.32-.032-.384-.104-.08-.072-.144-.2-.176-.384l-1.456-6.08-1.44 6.08c-.04.192-.096.32-.176.384-.08.072-.2.104-.384.104h-.8zm11.2.384c-.816 0-1.456-.232-1.928-.696-.472-.464-.712-1.088-.712-1.864 0-.832.256-1.504.768-2.016.512-.512 1.2-.768 2.064-.768.8 0 1.424.232 1.872.696.448.464.672 1.088.672 1.872v.48c0 .152-.076.232-.224.232h-2.976c.024.672.2 1.168.528 1.488.328.32.784.48 1.368.48.296 0 .6-.032.912-.096.312-.064.592-.144.832-.24.12-.048.208-.08.256-.096.048-.016.088-.024.112-.024.112 0 .168.08.168.24v.384c0 .128-.016.224-.056.288-.04.064-.112.128-.2.176-.24.128-.528.232-.864.312-.336.08-.688.12-1.056.12zm-.128-3.744c-.48 0-.864.128-1.152.384-.288.256-.464.616-.528 1.08h3.2c0-.464-.128-.824-.384-1.08-.256-.256-.608-.384-1.136-.384z" fill="#FF9900"/>
</svg>