<svg viewBox="0 0 24 24" fill="none" xmlns="http://www.w3.org/2000/svg">
<path d="M21.038 4.9l-7.577-4.498c-.8-.48-1.84-.48-2.64 0L3.239 4.9c-.8.48-1.28 1.36-1.28 2.32v9.56c0 .96.48 1.84 1.28 2.32l7.582 4.498c.8.48 1.84.48 2.64 0l7.577-4.498c.8-.48 1.28-1.36 1.28-2.32V7.22c0-.96-.48-1.84-1.28-2.32zM12 17.77c-3.18 0-5.77-2.59-5.77-5.77S8.82 6.23 12 6.23s5.77 2.59 5.77 5.77-2.59 5.77-5.77 5.77z" fill="#4EAA25"/>
<path d="M12 8.23c-2.07 0-3.77 1.7-3.77 3.77S9.93 15.77 12 15.77s3.77-1.7 3.77-3.77S14.07 8.23 12 8.23zm0 5.54c-1.07 0-1.77-.7-1.77-1.77S10.93 10.23 12 10.23s1.77.7 1.77 1.77-.7 1.77-1.77 1.77z" fill="#4EAA25"/>
</svg>