<svg viewBox="0 0 24 24" fill="none" xmlns="http://www.w3.org/2000/svg">
<path d="M13.983 11.078h2.119a.186.186 0 00.186-.185V9.006a.186.186 0 00-.186-.186h-2.119a.185.185 0 00-.185.185v1.888c0 .102.083.185.185.185m-2.954-5.43h2.118a.186.186 0 00.186-.186V3.574a.186.186 0 00-.186-.185h-2.118a.185.185 0 00-.185.185v1.888c0 .102.082.185.185.185m0 2.716h2.118a.187.187 0 00.186-.186V6.29a.186.186 0 00-.186-.185h-2.118a.185.185 0 00-.185.185v1.888c0 .102.082.185.185.186m-2.93 0h2.12a.186.186 0 00.185-.186V6.29a.185.185 0 00-.185-.185H8.1a.185.185 0 00-.185.185v1.888c0 .102.083.185.185.186m-2.964 0h2.119a.186.186 0 00.185-.186V6.29a.185.185 0 00-.185-.185H5.136a.186.186 0 00-.186.185v1.888c0 .102.084.185.186.186m5.893 2.715h2.118a.186.186 0 00.186-.185V9.006a.186.186 0 00-.186-.186h-2.118a.185.185 0 00-.185.185v1.888c0 .102.082.185.185.185m-2.93 0h2.12a.185.185 0 00.185-.185V9.006a.185.185 0 00-.185-.186H8.1a.185.185 0 00-.185.185v1.888c0 .102.083.185.185.185m-2.964 0h2.119a.185.185 0 00.185-.185V9.006a.185.185 0 00-.185-.186H5.136a.186.186 0 00-.186.186v1.887c0 .102.084.185.186.185m-2.92 0h2.12a.185.185 0 00.184-.185V9.006a.185.185 0 00-.185-.186h-2.12a.185.185 0 00-.184.185v1.888c0 .102.083.185.185.185m-2.964 0h2.119a.185.185 0 00.185-.185V9.006a.185.185 0 00-.184-.186h-2.12a.186.186 0 00-.186.186v1.887c0 .102.084.185.186.185m18.305-2.02a.52.52 0 00-.31-.26c-.383-.13-.8-.04-1.099.23-.348.31-.464.692-.35 1.14.082.318.283.61.55.8.398.283.907.283 1.305 0a1.28 1.28 0 00.55-.8c.114-.448-.002-.83-.35-1.14-.084-.076-.181-.14-.296-.17zm-3.006 1.73h-.462c-.185 0-.185.185-.185.185v1.888c0 .102.083.185.185.185h2.119a.186.186 0 00.185-.185V9.006a.186.186 0 00-.185-.186h-1.657z" fill="#2496ED"/>
</svg>