<svg viewBox="0 0 24 24" fill="none" xmlns="http://www.w3.org/2000/svg">
<path d="M12 0L8.485 3.515L12 7.03l3.515-3.515L12 0zM0 12l3.515-3.515L7.03 12l-3.515 3.515L0 12zm24 0l-3.515-3.515L16.97 12l3.515 3.515L24 12zM12 24l3.515-3.515L12 16.97l-3.515 3.515L12 24z" fill="#4285F4"/>
<path d="M8.485 8.485L12 12l3.515-3.515L12 4.97 8.485 8.485zM4.97 12L8.485 15.515 12 12 8.485 8.485 4.97 12zm14.545 0L15.515 8.485 12 12l3.515 3.515L19.03 12zM12 19.03l3.515-3.515L12 12l-3.515 3.515L12 19.03z" fill="#34A853"/>
</svg>