<svg viewBox="0 0 24 24" fill="none" xmlns="http://www.w3.org/2000/svg">
<path d="M10.204 14.35l.007.01-.999 2.413a5.171 5.171 0 002.328.549c.036 0 .071-.003.107-.004l-.045-2.539a.676.676 0 00-.398-.429zm1.717.429l-.045 2.539c.036.001.071.004.107.004a5.171 5.171 0 002.328-.549l-.999-2.413.007-.01a.676.676 0 00-.398.429zM12 1.25l-.312.78L12 2.75l.312-.72L12 1.25zm-.312.78a10.75 10.75 0 00-10.438 10.438L1.25 12l.78.312-.72.312.72.312L2.75 12l-.72-.312A10.75 10.75 0 0012.312 2.03L12 1.25l-.312.78zm10.438 10.438L22.75 12l-.78-.312.72-.312-.72-.312L21.25 12l.72.312a10.75 10.75 0 00-10.438-10.438L12 2.75l.312-.72L12 1.25l.312.78a10.75 10.75 0 0110.438 10.438zM12 21.25l.312-.78L12 21.25l-.312.72.312.03zm.312-.78a10.75 10.75 0 0010.438-10.438L22.75 12l-.78.312.72.312-.72.312L21.25 12l.72.312a10.75 10.75 0 00-10.438 10.438L12 21.25l.312-.78zM1.25 12l.78.312L1.25 12l-.78-.312.78-.312zm.78.312a10.75 10.75 0 0010.438 10.438L12 21.25l-.312.72.312.03.312-.72a10.75 10.75 0 00-10.438-10.438L2.03 12.312 1.25 12l.78.312z" fill="#326CE5"/>
<path d="M12.36 6.24c-.068-.265-.28-.45-.55-.45s-.482.185-.55.45L9.84 12.36c-.068.265.08.54.33.61l5.12 1.42c.25.07.52-.08.59-.33l1.42-5.12c.07-.25-.08-.52-.33-.59L12.36 6.24z" fill="#326CE5"/>
</svg>