<svg viewBox="0 0 24 24" fill="none" xmlns="http://www.w3.org/2000/svg">
<path d="M12.504 0c-.155 0-.315.008-.48.021-4.226.333-3.105 4.807-3.17 6.298-.076 1.092-.3 1.953-1.05 3.02-.885 1.051-2.127 2.75-2.716 4.521-.278.832-.41 1.684-.287 2.489a.424.424 0 00-.11.135c-.26.268-.45.6-.663.839-.199.199-.485.267-.797.4-.313.136-.658.269-.864.68-.09.189-.136.394-.132.602 0 .199.027.4.055.536.058.399.116.728.04.97-.249.68-.28 1.145-.106 1.484.174.334.535.47.94.601.81.2 1.91.135 2.774.6.926.466 1.866.67 2.616.47.526-.116.97-.464 1.208-.946.587-.003 1.23-.269 2.26-.334.699-.058 1.574.267 2.577.2.025.134.063.198.114.333l.003.003c.391.778 1.113 1.132 1.884 1.071.771-.06 1.592-.536 2.257-1.306.631-.765 1.683-1.084 2.378-1.503.348-.199.629-.469.649-.853.023-.4-.2-.811-.714-1.376v-.097l-.003-.003c-.17-.2-.25-.535-.338-.926-.085-.401-.182-.786-.492-1.046h-.003c-.059-.054-.123-.067-.188-.135a.357.357 0 00-.19-.064c.431-1.278.264-2.55-.173-3.694-.533-1.41-1.465-2.638-2.175-3.483-.796-1.005-1.576-1.957-1.56-3.368.026-2.152.236-6.133-3.544-6.139zm.529 3.405h.013c.213 0 .396.062.584.198.19.135.33.332.438.533.105.259.158.459.166.724 0-.02.006-.04.006-.06v.105a.086.086 0 01-.004-.021l-.004-.024a1.807 1.807 0 01-.15.706.953.953 0 01-.213.335.71.71 0 00-.088-.042c-.104-.045-.198-.064-.284-.133a1.312 1.312 0 00-.22-.066c.05-.06.146-.133.183-.198.053-.128.082-.264.088-.402v-.02a1.21 1.21 0 00-.061-.4c-.045-.134-.101-.2-.183-.333-.084-.066-.167-.132-.267-.132h-.016c-.093 0-.176.03-.262.132a.8.8 0 00-.205.334 1.18 1.18 0 00-.09.4v.019c.002.089.008.179.02.267-.193-.067-.438-.135-.607-.202a1.635 1.635 0 01-.018-.2v-.02a1.772 1.772 0 01.15-.768c.082-.22.232-.406.43-.533a.985.985 0 01.594-.2zm-2.962.059h.036c.142 0 .27.048.399.135.146.129.264.288.344.465.09.199.14.4.153.667v.004c.007.134.006.2-.002.266v.08c-.03.007-.056.018-.083.024-.152.055-.274.135-.393.2.012-.09.013-.18.003-.267v-.015c-.012-.133-.04-.2-.082-.333a.613.613 0 00-.166-.267.248.248 0 00-.183-.064h-.021c-.071.006-.13.04-.186.132a.552.552 0 00-.12.27.944.944 0 00-.023.33v.015c.012.135.037.2.08.334.046.134.098.2.166.268.01.009.02.018.034.024-.07.057-.117.07-.176.136a.304.304 0 01-.131.068 2.62 2.62 0 01-.275-.402 1.772 1.772 0 01-.155-.667 1.759 1.759 0 01.08-.668 1.43 1.43 0 01.283-.535c.128-.133.26-.2.418-.2zm1.37 1.706c.332 0 .733.065 1.216.399.293.2.523.269 1.052.468h.003c.255.136.405.266.478.399v-.131a.571.571 0 01.016.47c-.123.31-.516.643-1.063.842v.002c-.268.135-.501.333-.775.465-.276.135-.588.292-1.012.267a1.139 1.139 0 01-.448-.067 3.566 3.566 0 01-.322-.198c-.195-.135-.363-.332-.612-.465v-.005h-.005c-.4-.246-.616-.512-.686-.71-.07-.268-.005-.47.193-.6.224-.135.38-.271.483-.336.104-.074.143-.102.25-.131h.002v.003c.129-.06.194-.23.275-.400.085-.17.18-.331.324-.465.183-.135.388-.201.628-.201zm-1.262 2.205v.007c0 .179.044.33.109.465.065.134.14.2.246.334.105.068.191.132.304.268.113.134.180.201.293.333.109.135.113.200.188.334.192.2.402.2.665.533.262.334.328.668.537.934.209.267.477.335.718.535.241.267.322.465.463.535.14.067.322.085.504.085.188 0 .363-.018.504-.085.14-.067.222-.268.463-.535.241-.2.509-.268.718-.535.209-.266.275-.6.537-.934.263-.334.473-.334.665-.533.075-.134.079-.2.188-.334.113-.132.18-.199.293-.333.113-.136.199-.2.304-.268.106-.134.181-.2.246-.334.065-.134.109-.286.109-.465v-.007c0-.4-.078-.667-.109-.934a9.312 9.312 0 01-.109-.934c-.03-.4-.046-.667-.046-1.066 0-.4.016-.667.046-1.066.031-.4.078-.667.109-.934.031-.267.109-.534.109-.934v-.006c0-.179-.044-.331-.109-.465-.065-.134-.14-.2-.246-.334-.105-.068-.191-.132-.304-.268-.113-.134-.18-.201-.293-.333-.109-.135-.113-.2-.188-.334-.192-.2-.402-.2-.665-.533-.262-.334-.328-.668-.537-.934-.209-.267-.477-.335-.718-.535-.241-.267-.322-.465-.463-.535-.14-.067-.322-.085-.504-.085-.188 0-.363.018-.504.085-.14.067-.222.268-.463.535-.241.2-.509.268-.718.535-.209.266-.275.6-.537.934-.263.334-.473.334-.665.533-.075.134-.079.2-.188.334-.113.132-.18.199-.293.333-.113.136-.199.2-.304.268-.106.134-.181.2-.246.334-.065.134-.109.286-.109.465z" fill="#FCC624"/>
</svg>