<svg viewBox="0 0 24 24" fill="none" xmlns="http://www.w3.org/2000/svg">
<path d="M23.546 10.93L13.067.452c-.604-.603-1.582-.603-2.188 0L8.708 2.627l2.76 2.76c.645-.215 1.379-.07 1.889.441.516.515.658 1.258.438 1.9l2.658 2.66c.645-.223 1.387-.078 1.9.435.721.72.721 1.884 0 2.604-.719.719-1.881.719-2.6 0-.539-.541-.674-1.337-.404-1.996L12.86 8.955v6.525c.176.086.342.203.488.348.713.713.713 1.87 0 2.583-.719.719-1.881.719-2.6 0-.719-.719-.719-1.881 0-2.6.177-.177.378-.316.594-.406V8.835c-.216-.09-.417-.229-.594-.406-.545-.544-.676-1.342-.396-2.009L7.636 3.7.45 10.881c-.6.605-.6 1.584 0 2.189l10.48 10.477c.604.604 1.582.604 2.186 0L23.546 13.12c.603-.603.603-1.582 0-2.187" fill="#F05032"/>
</svg>